<svg width="26" height="26" viewBox="0 0 26 26" fill="none" xmlns="http://www.w3.org/2000/svg">
<circle cx="13" cy="13" r="13" transform="rotate(90 13 13)" fill="#00A4E8"/>
<path d="M14 5C14 4.44772 13.5523 4 13 4C12.4477 4 12 4.44772 12 5L14 5ZM12.2929 20.7071C12.6834 21.0976 13.3166 21.0976 13.7071 20.7071L20.0711 14.3431C20.4616 13.9526 20.4616 13.3195 20.0711 12.9289C19.6805 12.5384 19.0474 12.5384 18.6569 12.9289L13 18.5858L7.34315 12.9289C6.95262 12.5384 6.31946 12.5384 5.92893 12.9289C5.53841 13.3195 5.53841 13.9526 5.92893 14.3431L12.2929 20.7071ZM12 5L12 20L14 20L14 5L12 5Z" fill="white"/>
</svg>
