<svg width="26" height="26" viewBox="0 0 26 26" fill="none" xmlns="http://www.w3.org/2000/svg">
<circle cx="13" cy="13" r="13" fill="#00A4E8"/>
<path d="M5 12C4.44772 12 4 12.4477 4 13C4 13.5523 4.44772 14 5 14L5 12ZM20.7071 13.7071C21.0976 13.3166 21.0976 12.6834 20.7071 12.2929L14.3431 5.92893C13.9526 5.53841 13.3195 5.53841 12.9289 5.92893C12.5384 6.31946 12.5384 6.95262 12.9289 7.34315L18.5858 13L12.9289 18.6569C12.5384 19.0474 12.5384 19.6805 12.9289 20.0711C13.3195 20.4616 13.9526 20.4616 14.3431 20.0711L20.7071 13.7071ZM5 14L20 14L20 12L5 12L5 14Z" fill="white"/>
</svg>
