<svg width="33" height="33" viewBox="0 0 33 33" fill="none" xmlns="http://www.w3.org/2000/svg">
<circle cx="16.5" cy="16.5" r="16.5" fill="#00A4E8"/>
<path d="M25.528 21.2399L23.0108 18.7227C22.1117 17.8237 20.5834 18.1833 20.2238 19.352C19.9541 20.1611 19.0551 20.6107 18.246 20.4308C16.4479 19.9813 14.0206 17.6439 13.5711 15.7559C13.3014 14.9468 13.8408 14.0478 14.6499 13.7781C15.8186 13.4185 16.1782 11.8902 15.2792 10.9912L12.762 8.47394C12.0428 7.84463 10.964 7.84463 10.3347 8.47394L8.62653 10.1821C6.9184 11.9801 8.80633 16.7449 13.0317 20.9702C17.2571 25.1956 22.0218 27.1735 23.8199 25.3754L25.528 23.6673C26.1573 22.9481 26.1573 21.8692 25.528 21.2399Z" fill="white"/>
</svg>
