<svg width="33" height="33" viewBox="0 0 33 33" fill="none" xmlns="http://www.w3.org/2000/svg">
<path fill-rule="evenodd" clip-rule="evenodd" d="M16.5 0C7.38733 0 0 7.38733 0 16.5C0 25.6127 7.38733 33 16.5 33C25.6127 33 33 25.6127 33 16.5C33 7.38733 25.6127 0 16.5 0ZM12.8723 7.75314C13.8109 7.71045 14.1109 7.7 16.5008 7.7H16.4981C18.8888 7.7 19.1876 7.71045 20.1263 7.75314C21.0631 7.79604 21.7029 7.94441 22.264 8.162C22.8433 8.38661 23.3328 8.68725 23.8223 9.17675C24.3119 9.66591 24.6125 10.1568 24.838 10.7357C25.0544 11.2952 25.2029 11.9347 25.2469 12.8715C25.289 13.8102 25.3 14.1101 25.3 16.5001C25.3 18.89 25.289 19.1892 25.2469 20.1279C25.2029 21.0644 25.0544 21.704 24.838 22.2638C24.6125 22.8424 24.3119 23.3333 23.8223 23.8225C23.3333 24.312 22.8431 24.6134 22.2645 24.8382C21.7046 25.0558 21.0644 25.2041 20.1276 25.247C19.1889 25.2898 18.8899 25.3002 16.4997 25.3002C14.11 25.3002 13.8102 25.2898 12.8715 25.247C11.9349 25.2041 11.2952 25.0558 10.7353 24.8382C10.1568 24.6134 9.66591 24.312 9.17696 23.8225C8.68759 23.3333 8.38695 22.8424 8.162 22.2636C7.94454 21.704 7.79625 21.0646 7.75314 20.1277C7.71066 19.1891 7.7 18.89 7.7 16.5001C7.7 14.1101 7.711 13.81 7.75301 12.8713C7.79515 11.9349 7.94365 11.2952 8.16179 10.7354C8.38729 10.1568 8.68801 9.66591 9.17751 9.17675C9.66666 8.68746 10.1576 8.38674 10.7364 8.162C11.296 7.94441 11.9354 7.79604 12.8723 7.75314Z" fill="#C4C4C4"/>
<path fill-rule="evenodd" clip-rule="evenodd" d="M15.711 9.2854C15.8642 9.2852 16.0291 9.28527 16.2071 9.28533L16.5004 9.2854C18.85 9.2854 19.1285 9.29386 20.0564 9.336C20.9144 9.37526 21.38 9.5186 21.6902 9.63905C22.1009 9.79854 22.3937 9.98925 22.7015 10.2972C23.0095 10.6052 23.2002 10.8986 23.3601 11.3092C23.4805 11.6191 23.6241 12.0847 23.6631 12.9427C23.7053 13.8704 23.7144 14.149 23.7144 16.4975C23.7144 18.846 23.7053 19.1246 23.6631 20.0523C23.6239 20.9103 23.4805 21.376 23.3601 21.6858C23.2006 22.0964 23.0095 22.3889 22.7015 22.6967C22.3935 23.0047 22.1011 23.1954 21.6902 23.3549C21.3804 23.4759 20.9144 23.6189 20.0564 23.6581C19.1287 23.7003 18.85 23.7094 16.5004 23.7094C14.1506 23.7094 13.8721 23.7003 12.9444 23.6581C12.0864 23.6185 11.6207 23.4751 11.3103 23.3547C10.8997 23.1952 10.6063 23.0045 10.2983 22.6965C9.99034 22.3885 9.7997 22.0959 9.63978 21.6851C9.51933 21.3753 9.37578 20.9096 9.33673 20.0516C9.29459 19.124 9.28613 18.8452 9.28613 16.4953C9.28613 14.1454 9.29459 13.8682 9.33673 12.9405C9.37599 12.0825 9.51933 11.6169 9.63978 11.3067C9.79928 10.896 9.99034 10.6027 10.2983 10.2947C10.6063 9.98671 10.8997 9.796 11.3103 9.63616C11.6205 9.51516 12.0864 9.37216 12.9444 9.3327C13.7562 9.29606 14.0709 9.28506 15.711 9.2832V9.2854ZM21.1978 10.7466C20.6148 10.7466 20.1418 11.219 20.1418 11.8022C20.1418 12.3852 20.6148 12.8582 21.1978 12.8582C21.7808 12.8582 22.2538 12.3852 22.2538 11.8022C22.2538 11.2192 21.7808 10.7462 21.1978 10.7462V10.7466ZM11.9812 16.4995C11.9812 14.0039 14.0045 11.9805 16.5002 11.9804C18.996 11.9804 21.0189 14.0038 21.0189 16.4995C21.0189 18.9953 18.9961 21.0178 16.5004 21.0178C14.0047 21.0178 11.9812 18.9953 11.9812 16.4995Z" fill="#C4C4C4"/>
<path d="M16.5007 13.5664C18.1207 13.5664 19.4341 14.8796 19.4341 16.4996C19.4341 18.1194 18.1207 19.4328 16.5007 19.4328C14.8806 19.4328 13.5674 18.1194 13.5674 16.4996C13.5674 14.8796 14.8806 13.5664 16.5007 13.5664Z" fill="#C4C4C4"/>
</svg>
