<svg width="33" height="33" viewBox="0 0 33 33" fill="none" xmlns="http://www.w3.org/2000/svg">
<path fill-rule="evenodd" clip-rule="evenodd" d="M16.5 0C7.38733 0 0 7.38733 0 16.5C0 25.6127 7.38733 33 16.5 33C25.6127 33 33 25.6127 33 16.5C33 7.38733 25.6127 0 16.5 0ZM16.0405 13.9824L16.0058 13.4114C15.9019 11.9316 16.8137 10.58 18.2564 10.0557C18.7873 9.86927 19.6875 9.84596 20.2762 10.0091C20.507 10.079 20.9456 10.312 21.2572 10.5218L21.8227 10.9063L22.4459 10.7082C22.7922 10.6033 23.2539 10.4285 23.4616 10.312C23.6578 10.2072 23.8309 10.1489 23.8309 10.1839C23.8309 10.3819 23.4039 11.0578 23.0461 11.4306C22.5613 11.9549 22.6999 12.0015 23.6809 11.652C24.2695 11.4539 24.281 11.4539 24.1656 11.6753C24.0963 11.7918 23.7386 12.1996 23.3577 12.5725C22.7114 13.2133 22.6768 13.2833 22.6768 13.8192C22.6768 14.6465 22.2843 16.371 21.8919 17.3148C21.1648 19.0858 19.6067 20.9151 18.0487 21.8356C15.8558 23.129 12.9358 23.4552 10.4775 22.6979C9.65807 22.4415 8.25 21.789 8.25 21.6725C8.25 21.6376 8.67701 21.5909 9.19641 21.5793C10.2813 21.556 11.3662 21.253 12.2895 20.7171L12.9128 20.3442L12.1971 20.0995C11.1815 19.75 10.2697 18.946 10.0389 18.1886C9.96964 17.944 9.99274 17.9323 10.6391 17.9323L11.3085 17.9207L10.7429 17.6527C10.0735 17.3148 9.46186 16.7438 9.16176 16.1612C8.94245 15.7418 8.66553 14.6814 8.74631 14.5999C8.76934 14.565 9.01175 14.6348 9.28874 14.728C10.0851 15.0193 10.189 14.9494 9.7273 14.4601C8.86167 13.5746 8.59622 12.2578 9.01175 11.0111L9.20796 10.4519L9.96964 11.2092C11.5278 12.7356 13.3629 13.6445 15.4634 13.9125L16.0405 13.9824Z" fill="#C4C4C4"/>
</svg>
